<mxfile host="app.diagrams.net" modified="2024-04-18T11:02:28.198Z" agent="Mozilla/5.0 (Macintosh; Intel Mac OS X 10_15_7) AppleWebKit/537.36 (KHTML, like Gecko) Chrome/123.0.0.0 Safari/537.36" etag="9phMMbC9mxSNkYkgj0oC" version="24.2.5" type="github">
  <diagram name="Page-1" id="c7558073-3199-34d8-9f00-42111426c3f3">
    <mxGraphModel dx="1674" dy="705" grid="1" gridSize="10" guides="1" tooltips="1" connect="1" arrows="1" fold="1" page="1" pageScale="1" pageWidth="3300" pageHeight="4681" background="none" math="0" shadow="0">
      <root>
        <mxCell id="0" />
        <mxCell id="1" parent="0" />
        <mxCell id="FvSmEcgoDN6Yn2V-QKjq-102" value="" style="edgeStyle=orthogonalEdgeStyle;rounded=0;orthogonalLoop=1;jettySize=auto;html=1;" edge="1" parent="1" source="FvSmEcgoDN6Yn2V-QKjq-97" target="FvSmEcgoDN6Yn2V-QKjq-101">
          <mxGeometry relative="1" as="geometry" />
        </mxCell>
        <mxCell id="FvSmEcgoDN6Yn2V-QKjq-106" style="edgeStyle=orthogonalEdgeStyle;rounded=0;orthogonalLoop=1;jettySize=auto;html=1;exitX=0.5;exitY=0;exitDx=0;exitDy=0;entryX=0;entryY=0.5;entryDx=0;entryDy=0;" edge="1" parent="1" source="FvSmEcgoDN6Yn2V-QKjq-97" target="FvSmEcgoDN6Yn2V-QKjq-98">
          <mxGeometry relative="1" as="geometry" />
        </mxCell>
        <mxCell id="FvSmEcgoDN6Yn2V-QKjq-149" style="edgeStyle=orthogonalEdgeStyle;rounded=0;orthogonalLoop=1;jettySize=auto;html=1;exitX=0.5;exitY=1;exitDx=0;exitDy=0;entryX=0;entryY=0.5;entryDx=0;entryDy=0;" edge="1" parent="1" source="FvSmEcgoDN6Yn2V-QKjq-97" target="FvSmEcgoDN6Yn2V-QKjq-125">
          <mxGeometry relative="1" as="geometry" />
        </mxCell>
        <mxCell id="FvSmEcgoDN6Yn2V-QKjq-97" value="" style="shape=actor;whiteSpace=wrap;html=1;labelBackgroundColor=none;" vertex="1" parent="1">
          <mxGeometry x="90" y="330" width="40" height="60" as="geometry" />
        </mxCell>
        <mxCell id="FvSmEcgoDN6Yn2V-QKjq-105" value="" style="edgeStyle=orthogonalEdgeStyle;rounded=0;orthogonalLoop=1;jettySize=auto;html=1;" edge="1" parent="1" source="FvSmEcgoDN6Yn2V-QKjq-98" target="FvSmEcgoDN6Yn2V-QKjq-104">
          <mxGeometry relative="1" as="geometry" />
        </mxCell>
        <mxCell id="FvSmEcgoDN6Yn2V-QKjq-98" value="配置摄像头参数" style="rounded=1;whiteSpace=wrap;html=1;shadow=1;labelBackgroundColor=none;fillColor=#fff2cc;strokeColor=#d6b656;gradientColor=none;" vertex="1" parent="1">
          <mxGeometry x="230" y="220" width="120" height="60" as="geometry" />
        </mxCell>
        <mxCell id="FvSmEcgoDN6Yn2V-QKjq-130" style="edgeStyle=orthogonalEdgeStyle;rounded=0;orthogonalLoop=1;jettySize=auto;html=1;exitX=1;exitY=0.5;exitDx=0;exitDy=0;" edge="1" parent="1" source="FvSmEcgoDN6Yn2V-QKjq-101" target="FvSmEcgoDN6Yn2V-QKjq-121">
          <mxGeometry relative="1" as="geometry" />
        </mxCell>
        <mxCell id="FvSmEcgoDN6Yn2V-QKjq-101" value="配置进程基础信息" style="rounded=1;whiteSpace=wrap;html=1;labelBackgroundColor=none;fillColor=#fff2cc;strokeColor=#d6b656;verticalAlign=middle;horizontal=1;" vertex="1" parent="1">
          <mxGeometry x="380" y="330" width="120" height="60" as="geometry" />
        </mxCell>
        <mxCell id="FvSmEcgoDN6Yn2V-QKjq-138" style="edgeStyle=orthogonalEdgeStyle;rounded=0;orthogonalLoop=1;jettySize=auto;html=1;exitX=1;exitY=0.5;exitDx=0;exitDy=0;entryX=0;entryY=0.5;entryDx=0;entryDy=0;" edge="1" parent="1" source="FvSmEcgoDN6Yn2V-QKjq-104" target="FvSmEcgoDN6Yn2V-QKjq-109">
          <mxGeometry relative="1" as="geometry" />
        </mxCell>
        <mxCell id="FvSmEcgoDN6Yn2V-QKjq-104" value="配置摄像头对应事件信息" style="rounded=1;whiteSpace=wrap;html=1;fillColor=#fff2cc;strokeColor=#d6b656;shadow=1;labelBackgroundColor=none;gradientColor=none;" vertex="1" parent="1">
          <mxGeometry x="460" y="210" width="140" height="80" as="geometry" />
        </mxCell>
        <mxCell id="FvSmEcgoDN6Yn2V-QKjq-107" value="Info_Camera表 入库ip、经纬度、视频流等信息" style="text;html=1;align=center;verticalAlign=middle;resizable=0;points=[];autosize=1;strokeColor=none;fillColor=none;" vertex="1" parent="1">
          <mxGeometry x="155" y="190" width="270" height="30" as="geometry" />
        </mxCell>
        <mxCell id="FvSmEcgoDN6Yn2V-QKjq-151" style="edgeStyle=orthogonalEdgeStyle;rounded=0;orthogonalLoop=1;jettySize=auto;html=1;exitX=1;exitY=0.5;exitDx=0;exitDy=0;entryX=0.5;entryY=0;entryDx=0;entryDy=0;" edge="1" parent="1" source="FvSmEcgoDN6Yn2V-QKjq-109" target="FvSmEcgoDN6Yn2V-QKjq-141">
          <mxGeometry relative="1" as="geometry" />
        </mxCell>
        <mxCell id="FvSmEcgoDN6Yn2V-QKjq-109" value="截取日常&lt;div&gt;视频，标定检测区域以及允许噪声等参数&lt;/div&gt;" style="rounded=1;whiteSpace=wrap;html=1;fillColor=#fff2cc;strokeColor=#d6b656;shadow=1;labelBackgroundColor=none;gradientColor=none;" vertex="1" parent="1">
          <mxGeometry x="690" y="220" width="140" height="60" as="geometry" />
        </mxCell>
        <mxCell id="FvSmEcgoDN6Yn2V-QKjq-111" value="组装参数入库&lt;div style=&quot;border-color: var(--border-color);&quot;&gt;Cfg_Camera&lt;/div&gt;" style="text;html=1;align=center;verticalAlign=middle;resizable=0;points=[];autosize=1;strokeColor=none;fillColor=none;" vertex="1" parent="1">
          <mxGeometry x="720" y="170" width="100" height="40" as="geometry" />
        </mxCell>
        <mxCell id="FvSmEcgoDN6Yn2V-QKjq-145" style="edgeStyle=orthogonalEdgeStyle;rounded=0;orthogonalLoop=1;jettySize=auto;html=1;exitX=1;exitY=0.5;exitDx=0;exitDy=0;entryX=0;entryY=0.5;entryDx=0;entryDy=0;" edge="1" parent="1" source="FvSmEcgoDN6Yn2V-QKjq-121" target="FvSmEcgoDN6Yn2V-QKjq-141">
          <mxGeometry relative="1" as="geometry" />
        </mxCell>
        <mxCell id="FvSmEcgoDN6Yn2V-QKjq-121" value="配置算法启动命令&lt;div&gt;&lt;span style=&quot;background-color: initial;&quot;&gt;参数&lt;/span&gt;&lt;/div&gt;" style="whiteSpace=wrap;html=1;fillColor=#fff2cc;strokeColor=#d6b656;rounded=1;labelBackgroundColor=none;" vertex="1" parent="1">
          <mxGeometry x="700" y="330" width="120" height="60" as="geometry" />
        </mxCell>
        <mxCell id="FvSmEcgoDN6Yn2V-QKjq-123" value="启动算法应用" style="whiteSpace=wrap;html=1;fillColor=#d5e8d4;strokeColor=#82b366;rounded=1;labelBackgroundColor=none;" vertex="1" parent="1">
          <mxGeometry x="1120" y="330" width="120" height="60" as="geometry" />
        </mxCell>
        <mxCell id="FvSmEcgoDN6Yn2V-QKjq-152" style="edgeStyle=orthogonalEdgeStyle;rounded=0;orthogonalLoop=1;jettySize=auto;html=1;exitX=1;exitY=0.5;exitDx=0;exitDy=0;entryX=0.5;entryY=1;entryDx=0;entryDy=0;" edge="1" parent="1" source="FvSmEcgoDN6Yn2V-QKjq-125" target="FvSmEcgoDN6Yn2V-QKjq-141">
          <mxGeometry relative="1" as="geometry" />
        </mxCell>
        <mxCell id="FvSmEcgoDN6Yn2V-QKjq-125" value="调三方接口拿到rtsp视频流&lt;div&gt;&lt;br&gt;&lt;/div&gt;" style="rounded=1;whiteSpace=wrap;html=1;fillColor=#fff2cc;strokeColor=#d6b656;labelBackgroundColor=none;align=center;verticalAlign=middle;horizontal=1;" vertex="1" parent="1">
          <mxGeometry x="700" y="440" width="120" height="60" as="geometry" />
        </mxCell>
        <mxCell id="FvSmEcgoDN6Yn2V-QKjq-148" style="edgeStyle=orthogonalEdgeStyle;rounded=0;orthogonalLoop=1;jettySize=auto;html=1;exitX=1;exitY=0.5;exitDx=0;exitDy=0;entryX=0;entryY=0.5;entryDx=0;entryDy=0;" edge="1" parent="1" source="FvSmEcgoDN6Yn2V-QKjq-141" target="FvSmEcgoDN6Yn2V-QKjq-123">
          <mxGeometry relative="1" as="geometry" />
        </mxCell>
        <mxCell id="FvSmEcgoDN6Yn2V-QKjq-141" value="初始化配置完成" style="rounded=0;whiteSpace=wrap;html=1;fillColor=#dae8fc;strokeColor=#6c8ebf;" vertex="1" parent="1">
          <mxGeometry x="890" y="330" width="120" height="60" as="geometry" />
        </mxCell>
        <mxCell id="FvSmEcgoDN6Yn2V-QKjq-155" value="" style="edgeStyle=orthogonalEdgeStyle;rounded=0;orthogonalLoop=1;jettySize=auto;html=1;" edge="1" parent="1" source="FvSmEcgoDN6Yn2V-QKjq-153" target="FvSmEcgoDN6Yn2V-QKjq-154">
          <mxGeometry relative="1" as="geometry" />
        </mxCell>
        <mxCell id="FvSmEcgoDN6Yn2V-QKjq-153" value="算法内部流程" style="rounded=0;whiteSpace=wrap;html=1;fillColor=#d5e8d4;strokeColor=#82b366;" vertex="1" parent="1">
          <mxGeometry x="60" y="800" width="120" height="60" as="geometry" />
        </mxCell>
        <mxCell id="FvSmEcgoDN6Yn2V-QKjq-163" value="" style="edgeStyle=orthogonalEdgeStyle;rounded=0;orthogonalLoop=1;jettySize=auto;html=1;" edge="1" parent="1" source="FvSmEcgoDN6Yn2V-QKjq-154" target="FvSmEcgoDN6Yn2V-QKjq-162">
          <mxGeometry relative="1" as="geometry" />
        </mxCell>
        <mxCell id="FvSmEcgoDN6Yn2V-QKjq-170" style="edgeStyle=orthogonalEdgeStyle;rounded=0;orthogonalLoop=1;jettySize=auto;html=1;exitX=0.5;exitY=0;exitDx=0;exitDy=0;entryX=0.5;entryY=1;entryDx=0;entryDy=0;" edge="1" parent="1" source="FvSmEcgoDN6Yn2V-QKjq-154" target="FvSmEcgoDN6Yn2V-QKjq-160">
          <mxGeometry relative="1" as="geometry" />
        </mxCell>
        <mxCell id="FvSmEcgoDN6Yn2V-QKjq-154" value="有无标准图&lt;div&gt;&lt;br&gt;&lt;/div&gt;" style="rhombus;whiteSpace=wrap;html=1;fillColor=#d5e8d4;strokeColor=#82b366;rounded=0;verticalAlign=middle;" vertex="1" parent="1">
          <mxGeometry x="280" y="790" width="120" height="80" as="geometry" />
        </mxCell>
        <mxCell id="FvSmEcgoDN6Yn2V-QKjq-160" value="循环生成标准图" style="rounded=1;whiteSpace=wrap;html=1;fillColor=#d5e8d4;strokeColor=#82b366;" vertex="1" parent="1">
          <mxGeometry x="280" y="610" width="120" height="60" as="geometry" />
        </mxCell>
        <mxCell id="FvSmEcgoDN6Yn2V-QKjq-166" value="" style="edgeStyle=orthogonalEdgeStyle;rounded=0;orthogonalLoop=1;jettySize=auto;html=1;" edge="1" parent="1" source="FvSmEcgoDN6Yn2V-QKjq-162" target="FvSmEcgoDN6Yn2V-QKjq-165">
          <mxGeometry relative="1" as="geometry" />
        </mxCell>
        <mxCell id="FvSmEcgoDN6Yn2V-QKjq-182" style="edgeStyle=orthogonalEdgeStyle;rounded=0;orthogonalLoop=1;jettySize=auto;html=1;exitX=1;exitY=0.5;exitDx=0;exitDy=0;entryX=0;entryY=0.5;entryDx=0;entryDy=0;" edge="1" parent="1" source="FvSmEcgoDN6Yn2V-QKjq-162" target="FvSmEcgoDN6Yn2V-QKjq-181">
          <mxGeometry relative="1" as="geometry" />
        </mxCell>
        <mxCell id="FvSmEcgoDN6Yn2V-QKjq-162" value="标准图是否完好" style="rhombus;whiteSpace=wrap;html=1;fillColor=#d5e8d4;strokeColor=#82b366;rounded=0;" vertex="1" parent="1">
          <mxGeometry x="510" y="780" width="120" height="100" as="geometry" />
        </mxCell>
        <mxCell id="FvSmEcgoDN6Yn2V-QKjq-164" value="有" style="edgeLabel;html=1;align=center;verticalAlign=middle;resizable=0;points=[];fontSize=15;" vertex="1" connectable="0" parent="1">
          <mxGeometry x="400.0019724722405" y="800.0043156324466" as="geometry">
            <mxPoint x="46" y="4" as="offset" />
          </mxGeometry>
        </mxCell>
        <mxCell id="FvSmEcgoDN6Yn2V-QKjq-173" value="" style="edgeStyle=orthogonalEdgeStyle;rounded=0;orthogonalLoop=1;jettySize=auto;html=1;" edge="1" parent="1" source="FvSmEcgoDN6Yn2V-QKjq-165" target="FvSmEcgoDN6Yn2V-QKjq-172">
          <mxGeometry relative="1" as="geometry" />
        </mxCell>
        <mxCell id="FvSmEcgoDN6Yn2V-QKjq-165" value="手动调整标准图" style="whiteSpace=wrap;html=1;fillColor=#d5e8d4;strokeColor=#82b366;rounded=1;" vertex="1" parent="1">
          <mxGeometry x="510" y="610" width="120" height="60" as="geometry" />
        </mxCell>
        <mxCell id="FvSmEcgoDN6Yn2V-QKjq-171" value="无" style="text;html=1;align=center;verticalAlign=middle;resizable=0;points=[];autosize=1;strokeColor=none;fillColor=none;fontSize=15;" vertex="1" parent="1">
          <mxGeometry x="290" y="718" width="40" height="30" as="geometry" />
        </mxCell>
        <mxCell id="FvSmEcgoDN6Yn2V-QKjq-172" value="调用merge脚本" style="rounded=1;whiteSpace=wrap;html=1;fillColor=#d5e8d4;strokeColor=#82b366;" vertex="1" parent="1">
          <mxGeometry x="710" y="610" width="120" height="60" as="geometry" />
        </mxCell>
        <mxCell id="FvSmEcgoDN6Yn2V-QKjq-174" value="组装参数入库&lt;div style=&quot;border-color: var(--border-color);&quot;&gt;Cfg_process&lt;/div&gt;" style="text;html=1;align=center;verticalAlign=middle;resizable=0;points=[];autosize=1;strokeColor=none;fillColor=none;" vertex="1" parent="1">
          <mxGeometry x="800" y="300" width="100" height="40" as="geometry" />
        </mxCell>
        <mxCell id="FvSmEcgoDN6Yn2V-QKjq-175" value="组装参数入库&lt;div style=&quot;border-color: var(--border-color);&quot;&gt;Cfg_process&lt;/div&gt;" style="text;html=1;align=center;verticalAlign=middle;resizable=0;points=[];autosize=1;strokeColor=none;fillColor=none;" vertex="1" parent="1">
          <mxGeometry x="720" y="570" width="100" height="40" as="geometry" />
        </mxCell>
        <mxCell id="FvSmEcgoDN6Yn2V-QKjq-176" value="否" style="text;html=1;align=center;verticalAlign=middle;resizable=0;points=[];autosize=1;strokeColor=none;fillColor=none;fontSize=15;" vertex="1" parent="1">
          <mxGeometry x="520" y="718" width="40" height="30" as="geometry" />
        </mxCell>
        <mxCell id="FvSmEcgoDN6Yn2V-QKjq-178" value="是" style="text;html=1;align=center;verticalAlign=middle;resizable=0;points=[];autosize=1;strokeColor=none;fillColor=none;fontSize=15;" vertex="1" parent="1">
          <mxGeometry x="660" y="790" width="40" height="30" as="geometry" />
        </mxCell>
        <mxCell id="FvSmEcgoDN6Yn2V-QKjq-181" value="检测事件" style="rounded=1;whiteSpace=wrap;html=1;fillColor=#d5e8d4;strokeColor=#82b366;" vertex="1" parent="1">
          <mxGeometry x="740" y="800" width="120" height="60" as="geometry" />
        </mxCell>
        <mxCell id="FvSmEcgoDN6Yn2V-QKjq-185" value="组装参数入库Info_Event,Tbl_Event" style="text;html=1;align=center;verticalAlign=middle;resizable=0;points=[];autosize=1;strokeColor=none;fillColor=none;" vertex="1" parent="1">
          <mxGeometry x="795" y="765" width="210" height="30" as="geometry" />
        </mxCell>
        <mxCell id="FvSmEcgoDN6Yn2V-QKjq-193" value="&lt;h1 style=&quot;margin-top: 0px;&quot;&gt;1.单个摄像头通过平台初始化配置&lt;/h1&gt;&lt;p&gt;&lt;br&gt;&lt;/p&gt;" style="text;html=1;whiteSpace=wrap;overflow=hidden;rounded=0;" vertex="1" parent="1">
          <mxGeometry x="380" y="100" width="380" height="40" as="geometry" />
        </mxCell>
        <mxCell id="FvSmEcgoDN6Yn2V-QKjq-195" value="&lt;h1 style=&quot;margin-top: 0px;&quot;&gt;3.算法程序启动后与平台交互&lt;/h1&gt;&lt;div&gt;&lt;br&gt;&lt;/div&gt;&lt;p&gt;&lt;br&gt;&lt;/p&gt;" style="text;html=1;whiteSpace=wrap;overflow=hidden;rounded=0;" vertex="1" parent="1">
          <mxGeometry x="400" y="940" width="330" height="50" as="geometry" />
        </mxCell>
        <mxCell id="FvSmEcgoDN6Yn2V-QKjq-196" value="&lt;h1 style=&quot;margin-top: 0px;&quot;&gt;2.算法内部实现&lt;/h1&gt;&lt;p&gt;&lt;br&gt;&lt;/p&gt;" style="text;html=1;whiteSpace=wrap;overflow=hidden;rounded=0;" vertex="1" parent="1">
          <mxGeometry x="450" y="530" width="180" height="40" as="geometry" />
        </mxCell>
        <mxCell id="FvSmEcgoDN6Yn2V-QKjq-199" value="" style="edgeStyle=orthogonalEdgeStyle;rounded=0;orthogonalLoop=1;jettySize=auto;html=1;" edge="1" parent="1" source="FvSmEcgoDN6Yn2V-QKjq-197" target="FvSmEcgoDN6Yn2V-QKjq-198">
          <mxGeometry relative="1" as="geometry" />
        </mxCell>
        <mxCell id="FvSmEcgoDN6Yn2V-QKjq-197" value="检测事件" style="rounded=0;whiteSpace=wrap;html=1;fillColor=#f5f5f5;fontColor=#333333;strokeColor=#666666;" vertex="1" parent="1">
          <mxGeometry x="70" y="1190" width="120" height="60" as="geometry" />
        </mxCell>
        <mxCell id="FvSmEcgoDN6Yn2V-QKjq-204" value="" style="edgeStyle=orthogonalEdgeStyle;rounded=0;orthogonalLoop=1;jettySize=auto;html=1;" edge="1" parent="1" source="FvSmEcgoDN6Yn2V-QKjq-198" target="FvSmEcgoDN6Yn2V-QKjq-203">
          <mxGeometry relative="1" as="geometry" />
        </mxCell>
        <mxCell id="FvSmEcgoDN6Yn2V-QKjq-225" style="edgeStyle=orthogonalEdgeStyle;rounded=0;orthogonalLoop=1;jettySize=auto;html=1;exitX=1;exitY=0.5;exitDx=0;exitDy=0;entryX=0;entryY=0.5;entryDx=0;entryDy=0;" edge="1" parent="1" source="FvSmEcgoDN6Yn2V-QKjq-198" target="FvSmEcgoDN6Yn2V-QKjq-200">
          <mxGeometry relative="1" as="geometry" />
        </mxCell>
        <mxCell id="FvSmEcgoDN6Yn2V-QKjq-198" value="是否准确" style="rhombus;whiteSpace=wrap;html=1;fillColor=#f5f5f5;strokeColor=#666666;fontColor=#333333;rounded=0;" vertex="1" parent="1">
          <mxGeometry x="280" y="1180" width="80" height="80" as="geometry" />
        </mxCell>
        <mxCell id="FvSmEcgoDN6Yn2V-QKjq-224" style="edgeStyle=orthogonalEdgeStyle;rounded=0;orthogonalLoop=1;jettySize=auto;html=1;exitX=1;exitY=0.5;exitDx=0;exitDy=0;entryX=0;entryY=0.5;entryDx=0;entryDy=0;" edge="1" parent="1" source="FvSmEcgoDN6Yn2V-QKjq-200" target="FvSmEcgoDN6Yn2V-QKjq-217">
          <mxGeometry relative="1" as="geometry" />
        </mxCell>
        <mxCell id="FvSmEcgoDN6Yn2V-QKjq-227" style="edgeStyle=orthogonalEdgeStyle;rounded=0;orthogonalLoop=1;jettySize=auto;html=1;exitX=1;exitY=0.5;exitDx=0;exitDy=0;entryX=0;entryY=0.5;entryDx=0;entryDy=0;" edge="1" parent="1" source="FvSmEcgoDN6Yn2V-QKjq-200" target="FvSmEcgoDN6Yn2V-QKjq-213">
          <mxGeometry relative="1" as="geometry" />
        </mxCell>
        <mxCell id="FvSmEcgoDN6Yn2V-QKjq-200" value="开始处理" style="whiteSpace=wrap;html=1;fillColor=#f5f5f5;strokeColor=#666666;fontColor=#333333;rounded=0;glass=0;shadow=0;" vertex="1" parent="1">
          <mxGeometry x="505" y="1190" width="120" height="60" as="geometry" />
        </mxCell>
        <mxCell id="FvSmEcgoDN6Yn2V-QKjq-202" value="&lt;font style=&quot;font-size: 15px;&quot;&gt;是&lt;/font&gt;" style="text;html=1;align=center;verticalAlign=middle;resizable=0;points=[];autosize=1;strokeColor=none;fillColor=none;" vertex="1" parent="1">
          <mxGeometry x="390" y="1180" width="40" height="30" as="geometry" />
        </mxCell>
        <mxCell id="FvSmEcgoDN6Yn2V-QKjq-203" value="作废" style="whiteSpace=wrap;html=1;fillColor=#f5f5f5;strokeColor=#666666;fontColor=#333333;rounded=1;" vertex="1" parent="1">
          <mxGeometry x="260" y="1030" width="120" height="60" as="geometry" />
        </mxCell>
        <mxCell id="FvSmEcgoDN6Yn2V-QKjq-205" value="&lt;font style=&quot;font-size: 15px;&quot;&gt;否&lt;/font&gt;" style="text;html=1;align=center;verticalAlign=middle;resizable=0;points=[];autosize=1;strokeColor=none;fillColor=none;" vertex="1" parent="1">
          <mxGeometry x="260" y="1120" width="40" height="30" as="geometry" />
        </mxCell>
        <mxCell id="FvSmEcgoDN6Yn2V-QKjq-209" value="事件类型入库&lt;div style=&quot;border-color: var(--border-color);&quot;&gt;Info_Event&lt;/div&gt;" style="text;html=1;align=center;verticalAlign=middle;resizable=0;points=[];autosize=1;strokeColor=none;fillColor=none;" vertex="1" parent="1">
          <mxGeometry x="490" y="170" width="100" height="40" as="geometry" />
        </mxCell>
        <mxCell id="FvSmEcgoDN6Yn2V-QKjq-222" value="" style="edgeStyle=orthogonalEdgeStyle;rounded=0;orthogonalLoop=1;jettySize=auto;html=1;" edge="1" parent="1" source="FvSmEcgoDN6Yn2V-QKjq-213" target="FvSmEcgoDN6Yn2V-QKjq-221">
          <mxGeometry relative="1" as="geometry" />
        </mxCell>
        <mxCell id="FvSmEcgoDN6Yn2V-QKjq-213" value="调整参数" style="whiteSpace=wrap;html=1;fillColor=#f5f5f5;strokeColor=#666666;fontColor=#333333;rounded=1;" vertex="1" parent="1">
          <mxGeometry x="850" y="1090" width="120" height="60" as="geometry" />
        </mxCell>
        <mxCell id="FvSmEcgoDN6Yn2V-QKjq-220" value="" style="edgeStyle=orthogonalEdgeStyle;rounded=0;orthogonalLoop=1;jettySize=auto;html=1;" edge="1" parent="1" source="FvSmEcgoDN6Yn2V-QKjq-217" target="FvSmEcgoDN6Yn2V-QKjq-219">
          <mxGeometry relative="1" as="geometry" />
        </mxCell>
        <mxCell id="FvSmEcgoDN6Yn2V-QKjq-217" value="分级、分状态" style="whiteSpace=wrap;html=1;fillColor=#f5f5f5;strokeColor=#666666;fontColor=#333333;rounded=1;glass=0;shadow=0;" vertex="1" parent="1">
          <mxGeometry x="850" y="1280" width="120" height="60" as="geometry" />
        </mxCell>
        <mxCell id="FvSmEcgoDN6Yn2V-QKjq-229" value="" style="edgeStyle=orthogonalEdgeStyle;rounded=0;orthogonalLoop=1;jettySize=auto;html=1;" edge="1" parent="1" source="FvSmEcgoDN6Yn2V-QKjq-219" target="FvSmEcgoDN6Yn2V-QKjq-228">
          <mxGeometry relative="1" as="geometry" />
        </mxCell>
        <mxCell id="FvSmEcgoDN6Yn2V-QKjq-219" value="入库" style="whiteSpace=wrap;html=1;fillColor=#f5f5f5;strokeColor=#666666;fontColor=#333333;rounded=1;glass=0;shadow=0;" vertex="1" parent="1">
          <mxGeometry x="1070" y="1280" width="120" height="60" as="geometry" />
        </mxCell>
        <mxCell id="FvSmEcgoDN6Yn2V-QKjq-221" value="重启算法程序" style="whiteSpace=wrap;html=1;fillColor=#f5f5f5;strokeColor=#666666;fontColor=#333333;rounded=1;" vertex="1" parent="1">
          <mxGeometry x="1070" y="1090" width="120" height="60" as="geometry" />
        </mxCell>
        <mxCell id="FvSmEcgoDN6Yn2V-QKjq-228" value="上传省平台" style="whiteSpace=wrap;html=1;fillColor=#f5f5f5;strokeColor=#666666;fontColor=#333333;rounded=1;glass=0;shadow=0;" vertex="1" parent="1">
          <mxGeometry x="1310" y="1280" width="120" height="60" as="geometry" />
        </mxCell>
      </root>
    </mxGraphModel>
  </diagram>
</mxfile>
